<svg width="20" height="19" viewBox="0 0 20 19" fill="none" xmlns="http://www.w3.org/2000/svg">
<path d="M4.49992 18.8333H0.333252V6.33333H4.49992V18.8333ZM2.41742 4.66667C1.26492 4.66667 0.333252 3.7325 0.333252 2.5825C0.333252 1.4325 1.26658 0.5 2.41742 0.5C3.56575 0.5 4.49992 1.43417 4.49992 2.5825C4.49992 3.7325 3.56575 4.66667 2.41742 4.66667ZM19.4999 18.8333H15.4941V12.75C15.4941 11.2992 15.4666 9.43333 13.4116 9.43333C11.3257 9.43333 11.0049 11.0133 11.0049 12.645V18.8333H6.99992V6.32417H10.8449V8.03333H10.8991C11.4341 7.05 12.7416 6.01333 14.6916 6.01333C18.7499 6.01333 19.4999 8.60416 19.4999 11.9725V18.8333Z" fill="white"/>
</svg>
